<svg width="27" height="27" viewBox="0 0 27 27" fill="none" xmlns="http://www.w3.org/2000/svg">
<path d="M22.501 11.8104C22.2026 11.8104 21.9165 11.929 21.7055 12.1399C21.4945 12.3509 21.376 12.6371 21.376 12.9354V20.8104C21.376 21.1088 21.2575 21.3949 21.0465 21.6059C20.8355 21.8169 20.5493 21.9354 20.251 21.9354H4.50098C4.20261 21.9354 3.91646 21.8169 3.70548 21.6059C3.4945 21.3949 3.37598 21.1088 3.37598 20.8104V11.8104C3.37598 11.5121 3.4945 11.2259 3.70548 11.0149C3.91646 10.804 4.20261 10.6854 4.50098 10.6854H6.75098C6.9963 10.6982 7.23907 10.6304 7.44221 10.4923C7.64536 10.3541 7.7977 10.1533 7.87598 9.92043L8.48348 8.07543C8.55895 7.85198 8.70274 7.65791 8.89452 7.52063C9.0863 7.38335 9.31638 7.30982 9.55223 7.31043H15.751C16.0493 7.31043 16.3355 7.19191 16.5465 6.98093C16.7575 6.76995 16.876 6.4838 16.876 6.18543C16.876 5.88706 16.7575 5.60092 16.5465 5.38994C16.3355 5.17896 16.0493 5.06043 15.751 5.06043H9.49598C8.78897 5.06175 8.10023 5.28508 7.52696 5.69888C6.9537 6.11268 6.52486 6.69606 6.30098 7.36668L5.94098 8.49168H4.50098C3.60587 8.49168 2.74743 8.84726 2.11449 9.4802C1.48156 10.1131 1.12598 10.9716 1.12598 11.8667V20.8667C1.12598 21.7618 1.48156 22.6202 2.11449 23.2532C2.74743 23.8861 3.60587 24.2417 4.50098 24.2417H20.251C21.1461 24.2417 22.0045 23.8861 22.6375 23.2532C23.2704 22.6202 23.626 21.7618 23.626 20.8667V12.9917C23.6336 12.8393 23.6102 12.6869 23.557 12.5439C23.5039 12.4008 23.4223 12.2701 23.317 12.1596C23.2118 12.0491 23.0852 11.9611 22.9449 11.9011C22.8046 11.8411 22.6536 11.8102 22.501 11.8104ZM12.376 10.6854C11.486 10.6854 10.6159 10.9494 9.87591 11.4438C9.13589 11.9383 8.55911 12.6411 8.21852 13.4634C7.87792 14.2856 7.78881 15.1904 7.96244 16.0633C8.13608 16.9363 8.56466 17.7381 9.194 18.3674C9.82333 18.9967 10.6252 19.4253 11.4981 19.599C12.371 19.7726 13.2758 19.6835 14.0981 19.3429C14.9203 19.0023 15.6231 18.4255 16.1176 17.6855C16.6121 16.9455 16.876 16.0754 16.876 15.1854C16.876 13.992 16.4019 12.8474 15.558 12.0035C14.714 11.1595 13.5695 10.6854 12.376 10.6854ZM12.376 17.4354C11.931 17.4354 11.496 17.3035 11.1259 17.0562C10.7559 16.809 10.4675 16.4576 10.2972 16.0465C10.127 15.6353 10.0824 15.1829 10.1692 14.7465C10.256 14.31 10.4703 13.9091 10.785 13.5944C11.0997 13.2798 11.5006 13.0655 11.937 12.9787C12.3735 12.8918 12.8259 12.9364 13.237 13.1067C13.6481 13.277 13.9995 13.5654 14.2468 13.9354C14.494 14.3054 14.626 14.7404 14.626 15.1854C14.626 15.7822 14.3889 16.3545 13.967 16.7764C13.545 17.1984 12.9727 17.4354 12.376 17.4354ZM24.751 5.06043H23.626V3.93543C23.626 3.63706 23.5075 3.35092 23.2965 3.13994C23.0855 2.92896 22.7993 2.81043 22.501 2.81043C22.2026 2.81043 21.9165 2.92896 21.7055 3.13994C21.4945 3.35092 21.376 3.63706 21.376 3.93543V5.06043H20.251C19.9526 5.06043 19.6665 5.17896 19.4555 5.38994C19.2445 5.60092 19.126 5.88706 19.126 6.18543C19.126 6.4838 19.2445 6.76995 19.4555 6.98093C19.6665 7.19191 19.9526 7.31043 20.251 7.31043H21.376V8.43543C21.376 8.7338 21.4945 9.01995 21.7055 9.23093C21.9165 9.44191 22.2026 9.56043 22.501 9.56043C22.7993 9.56043 23.0855 9.44191 23.2965 9.23093C23.5075 9.01995 23.626 8.7338 23.626 8.43543V7.31043H24.751C25.0493 7.31043 25.3355 7.19191 25.5465 6.98093C25.7575 6.76995 25.876 6.4838 25.876 6.18543C25.876 5.88706 25.7575 5.60092 25.5465 5.38994C25.3355 5.17896 25.0493 5.06043 24.751 5.06043Z" fill="#B14EE0"/>
</svg>
